<svg xmlns="http://www.w3.org/2000/svg" width="840.88" height="868.37" viewBox="0 0 840.88 868.37">
  <defs>
    <style>
      .cls-1 {
        fill: #3d00bd;
        fill-rule: evenodd;
      }
    </style>
  </defs>
  <path id="bg" class="cls-1" d="M2539,1124c18.52,50.1-142.16,124.58-165,244-5.39,28.19,2.87,57.27-11,92-3,7.5-30.35,45.55-31,76-0.77,36.11,23.33,47.15,27,81,4.99,45.99-30.88,64.81-22,107,7.7,36.57,48,49.84,48,87,0,16.03-7.86,32.4-22,48-26.95,29.74-67.22,33.68-79,35-143.46,16.03-463.52,133.1-535,17-18.46-29.99-4.37-67.25-1-125,5.5-94.41-27.89-141.76-20-236,6.96-83.11,34.69-130.12,10-194-16.05-41.52-42.03-64.86-38-108,2.44-26.15,15.92-51.51,36-73,31.51-33.72,80.71-53.71,165-55,106.95-1.64,154.65,44.78,255,33,17.17-2.02,86.14-30.24,141-18,15.71,3.5,50.92,19.7,84,21,48.21,1.9,75.88-10.47,88-25,7.49-8.98,12.77-33.35,26-37,8.86-2.44,19.44,2.75,30,12C2532.13,1112.25,2536.86,1118.21,2539,1124Z" transform="translate(-1699.59 -1093.41)"/>
</svg>
