<svg id="Isolation_Mode" data-name="Isolation Mode" xmlns="http://www.w3.org/2000/svg" xmlns:xlink="http://www.w3.org/1999/xlink" viewBox="0 0 248.53 304.67"><defs><style>.cls-1{fill:url(#linear-gradient);}.cls-2{fill:url(#linear-gradient-2);}.cls-3{fill:url(#linear-gradient-3);}.cls-4{fill:url(#linear-gradient-4);}</style><linearGradient id="linear-gradient" x1="92.61" y1="336.2" x2="171.61" y2="173.2" gradientUnits="userSpaceOnUse"><stop offset="0" stop-color="#fbb034"/><stop offset="1" stop-color="#fbd72b"/></linearGradient><linearGradient id="linear-gradient-2" x1="96.25" y1="376.33" x2="174.25" y2="248.33" xlink:href="#linear-gradient"/><linearGradient id="linear-gradient-3" x1="92.61" y1="335.86" x2="171.61" y2="172.86" gradientTransform="matrix(1, 0, 0, -1, 0, 694.99)" xlink:href="#linear-gradient"/><linearGradient id="linear-gradient-4" x1="96.25" y1="375.99" x2="174.25" y2="247.99" gradientTransform="matrix(1, 0, 0, -1, 0, 694.99)" xlink:href="#linear-gradient"/></defs><title>bottom-left</title><path class="cls-1" d="M0,201s59.49-24.19,77.29,27.35,107.49-25.94,107.49,53.38c0,45.41,81.37,13.27,60.25,66.27H0Z" transform="translate(0 -195.33)"/><path class="cls-2" d="M198.89,348A83.14,83.14,0,0,0,35,348Z" transform="translate(0 -195.33)"/><path class="cls-3" d="M0,494.33S59.49,518.52,77.29,467s107.49,25.94,107.49-53.38c0-45.41,81.37-13.26,60.25-66.27H0Z" transform="translate(0 -195.33)"/><path class="cls-4" d="M198.89,347.33a83.14,83.14,0,0,1-163.9,0Z" transform="translate(0 -195.33)"/></svg>